# Blender 4.1.1
# www.blender.org
mtllib bed.mtl
o Cube.002
v 2.000000 0.000000 -1.000000
v 2.000000 0.000000 1.000000
v -2.000000 0.000000 -1.000000
v -2.000000 0.000000 1.000000
v 2.000000 3.004344 -1.000000
v 0.131270 2.804514 1.000000
v -0.845367 2.804514 1.000000
v -2.000000 3.004344 -1.000000
v 2.000000 3.004344 1.000000
v -0.845367 0.000000 1.000000
v 0.131270 0.000000 1.000000
v -2.000000 3.004344 1.000000
v 1.186166 0.000000 -1.000000
v 1.186166 0.000000 0.929289
v -1.929289 0.000000 -1.000000
v -1.929289 0.000000 0.929290
v 1.186166 3.004344 -1.000000
v 0.131270 2.804514 0.929289
v -0.845367 2.804514 0.929289
v -1.929289 3.004344 -1.000000
v 1.186167 3.004344 0.929289
v -0.845367 0.000000 0.929289
v 0.131270 0.000000 0.929289
v -1.929289 3.004344 0.929290
v 1.186166 0.922869 -0.862403
v 1.186166 0.922869 0.431182
v -1.929289 0.922869 -0.862402
v -1.929289 0.922869 0.431183
v 1.186166 1.022869 -0.862403
v 1.186166 1.022869 0.431182
v -1.929289 1.022869 -0.862402
v -1.929289 1.022869 0.431183
vn 1.0000 -0.0000 -0.0000
vn -1.0000 -0.0000 -0.0000
vn -0.0000 -0.0000 1.0000
vn -0.0000 -0.0000 -1.0000
vn -0.0000 -1.0000 -0.0000
vn -0.0000 1.0000 -0.0000
vt 0.375000 0.000000
vt 0.625000 0.000000
vt 0.625000 0.250000
vt 0.375000 0.250000
vt 0.375000 0.500000
vt 0.625000 0.500000
vt 0.625000 0.750000
vt 0.375000 0.750000
vt 0.600021 0.262489
vt 0.399979 0.262489
vt 0.600021 0.487511
vt 0.399979 0.487511
vt 0.000000 0.000000
s 0
usemtl Material.003
f 1/1/1 5/2/1 9/3/1 2/4/1
f 4/5/2 12/6/2 8/7/2 3/8/2
f 6/9/3 11/10/3 2/4/3 9/3/3
f 7/11/3 6/9/3 9/3/3 12/6/3
f 10/12/3 7/11/3 12/6/3 4/5/3
f 13/1/2 14/4/2 21/3/2 17/2/2
f 16/5/1 15/8/1 20/7/1 24/6/1
f 18/9/4 21/3/4 14/4/4 23/10/4
f 19/11/4 24/6/4 21/3/4 18/9/4
f 22/12/4 16/5/4 24/6/4 19/11/4
f 1/1/5 2/4/5 14/4/5 13/1/5
f 9/3/6 5/2/6 17/2/6 21/3/6
f 12/6/6 9/3/6 21/3/6 24/6/6
f 4/5/5 3/8/5 15/8/5 16/5/5
f 8/7/6 12/6/6 24/6/6 20/7/6
f 11/10/2 6/9/2 18/9/2 23/10/2
f 6/9/5 7/11/5 19/11/5 18/9/5
f 7/11/1 10/12/1 22/12/1 19/11/1
f 2/4/5 11/10/5 23/10/5 14/4/5
f 10/12/5 4/5/5 16/5/5 22/12/5
f 5/2/4 1/1/4 13/1/4 17/2/4
f 8/7/4 20/7/4 15/8/4 3/8/4
usemtl Material.004
f 25/13/5 26/13/5 28/13/5 27/13/5
f 29/13/6 31/13/6 32/13/6 30/13/6
f 28/13/3 26/13/3 30/13/3 32/13/3
f 27/13/2 28/13/2 32/13/2 31/13/2
f 25/13/4 27/13/4 31/13/4 29/13/4
f 26/13/1 25/13/1 29/13/1 30/13/1
